<?xml version="1.0" encoding="utf-8"?>
<!-- Generator: Adobe Illustrator 16.0.0, SVG Export Plug-In . SVG Version: 6.00 Build 0)  -->
<!DOCTYPE svg PUBLIC "-//W3C//DTD SVG 1.1//EN" "http://www.w3.org/Graphics/SVG/1.1/DTD/svg11.dtd">
<svg version="1.1" id="Layer_4" xmlns="http://www.w3.org/2000/svg" xmlns:xlink="http://www.w3.org/1999/xlink" x="0px" y="0px"
	 width="100px" height="100px" viewBox="0 0 100 100" enable-background="new 0 0 100 100" xml:space="preserve">
<g>
	<path fill="#fff" d="M14.655,3.55C8.474,3.55,3.471,8.562,3.47,14.729c0,6.173,5.003,11.184,11.186,11.184c6.166,0,11.176-5.011,11.176-11.184
		C25.832,8.561,20.821,3.55,14.655,3.55z"/>
	<rect fill="#fff" x="5.008" y="34.396" width="19.287" height="62.054"/>
	<path fill="#fff" d="M73.395,32.853c-9.382,0-15.673,5.144-18.248,10.022h-0.258v-8.479H36.391H36.39v62.053h19.27V65.751
		c0-8.093,1.541-15.932,11.575-15.932c9.89,0,10.022,9.256,10.022,16.452v30.177H96.53V62.412
		C96.53,45.705,92.925,32.853,73.395,32.853z"/>
</g>
</svg>
