<?xml version="1.0" encoding="utf-8"?>
<!-- Generator: Adobe Illustrator 16.0.0, SVG Export Plug-In . SVG Version: 6.00 Build 0)  -->
<!DOCTYPE svg PUBLIC "-//W3C//DTD SVG 1.1//EN" "http://www.w3.org/Graphics/SVG/1.1/DTD/svg11.dtd">
<svg version="1.1" id="Layer_4" xmlns="http://www.w3.org/2000/svg" xmlns:xlink="http://www.w3.org/1999/xlink" x="0px" y="0px"
	 width="100px" height="100px" viewBox="0 0 100 100" enable-background="new 0 0 100 100" xml:space="preserve">
<g>
	<path fill="#fff" d="M86.948,50.569c-0.937-4.071-4.267-7.074-8.275-7.521c-9.49-1.06-19.098-1.065-28.661-1.06
		c-9.566-0.005-19.173,0-28.665,1.06c-4.006,0.448-7.334,3.451-8.27,7.521c-1.334,5.797-1.35,12.125-1.35,18.094
		s0,12.296,1.334,18.093c0.936,4.07,4.264,7.073,8.272,7.521c9.49,1.061,19.097,1.066,28.662,1.061
		c9.566,0.005,19.171,0,28.663-1.061c4.006-0.448,7.336-3.451,8.273-7.521c1.333-5.797,1.34-12.124,1.34-18.093
		S88.281,56.366,86.948,50.569z M33.561,55.062h-5.54v29.439h-5.146V55.062h-5.439V50.24h16.125V55.062z M47.538,84.501h-4.629
		v-2.785c-1.839,2.108-3.585,3.136-5.286,3.136c-1.491,0-2.517-0.605-2.98-1.898c-0.252-0.773-0.408-1.994-0.408-3.796V58.973h4.625
		v18.795c0,1.084,0,1.647,0.042,1.798c0.111,0.718,0.462,1.082,1.082,1.082c0.928,0,1.898-0.715,2.924-2.165V58.973h4.629V84.501z
		 M65.111,76.839c0,2.361-0.159,4.062-0.468,5.144c-0.618,1.899-1.855,2.869-3.695,2.869c-1.646,0-3.235-0.914-4.781-2.825v2.474
		h-4.625V50.24h4.625v11.19c1.493-1.839,3.08-2.769,4.781-2.769c1.84,0,3.078,0.969,3.695,2.88c0.311,1.027,0.468,2.715,0.468,5.132
		V76.839z M82.568,72.58h-9.251v4.526c0,2.363,0.774,3.542,2.363,3.542c1.139,0,1.802-0.619,2.067-1.855
		c0.042-0.251,0.103-1.279,0.103-3.134h4.719v0.675c0,1.491-0.057,2.518-0.099,2.981c-0.155,1.024-0.519,1.952-1.08,2.771
		c-1.281,1.854-3.179,2.768-5.595,2.768c-2.419,0-4.262-0.871-5.598-2.615c-0.982-1.278-1.486-3.29-1.486-6.003v-8.941
		c0-2.728,0.447-4.724,1.43-6.015c1.336-1.747,3.177-2.617,5.54-2.617c2.321,0,4.162,0.87,5.457,2.617
		c0.969,1.291,1.432,3.287,1.432,6.015V72.58z"/>
	<path fill="#fff" d="M75.638,62.825c-1.546,0-2.321,1.181-2.321,3.541v2.363h4.625v-2.363C77.942,64.006,77.169,62.825,75.638,62.825z"/>
	<path fill="#fff" d="M58.473,62.825c-0.761,0-1.534,0.361-2.307,1.125v15.559c0.773,0.774,1.545,1.139,2.307,1.139
		c1.334,0,2.012-1.139,2.012-3.445V66.309C60.485,64.006,59.807,62.825,58.473,62.825z"/>
	<path fill="#fff" d="M61.057,39.635c1.705,0,3.479-1.036,5.34-3.168v2.814h4.675V13.482h-4.675v19.718c-1.036,1.464-2.017,2.188-2.953,2.188
		c-0.626,0-0.994-0.37-1.096-1.095c-0.056-0.153-0.056-0.722-0.056-1.817V13.482h-4.661v20.4c0,1.822,0.157,3.055,0.415,3.836
		C58.514,39.025,59.551,39.635,61.057,39.635z"/>
	<path fill="#fff" d="M28.511,25.26v14.021h5.184V25.26l6.237-20.598H34.69l-3.537,13.595l-3.68-13.595h-5.455
		c1.093,3.209,2.23,6.434,3.323,9.646C27.004,19.136,28.042,22.776,28.511,25.26z"/>
	<path fill="#fff" d="M46.88,39.635c2.342,0,4.162-0.881,5.453-2.641c0.981-1.291,1.451-3.325,1.451-6.067v-9.034
		c0-2.758-0.469-4.774-1.451-6.077c-1.292-1.765-3.111-2.646-5.453-2.646c-2.33,0-4.149,0.881-5.443,2.646
		c-0.993,1.303-1.463,3.319-1.463,6.077v9.034c0,2.742,0.47,4.776,1.463,6.067C42.73,38.754,44.55,39.635,46.88,39.635z
		 M44.649,20.956c0-2.387,0.724-3.577,2.231-3.577c1.507,0,2.229,1.189,2.229,3.577v10.852c0,2.387-0.722,3.581-2.229,3.581
		c-1.507,0-2.231-1.194-2.231-3.581V20.956z"/>
</g>
</svg>
